<svg fill="none" height="72" viewBox="0 0 238 72" width="238" xmlns="http://www.w3.org/2000/svg"><path d="m59.3702 67.3431c-.806-5.314-3.224-52.5605-3.224-52.5605h-11.2839c-.1008-8.21254-6.851-14.7826-15.1125-14.7826s-15.0117 6.57006-15.1125 14.7826h-11.28395s-2.417994 47.2465-3.223992 52.5605c-.805999 5.2174 2.417992 4.6377 2.417992 4.6377h54.30415c.1007 0 3.3247.5797 2.5187-4.6377zm-29.6204-63.96145c6.3472 0 11.4855 5.12078 11.5862 11.40095h-11.0825-12.0899c.1007-6.28017 5.239-11.40095 11.5862-11.40095z" fill="#f3971f"/><path d="m91.1067 33.1402c-1.8135-1.5459-4.6345-2.3188-8.2615-2.3188h-10.0749v27.6329h7.8584v-9.1788h2.2165c3.5263 0 6.2465-.8696 8.1608-2.5121 2.015-1.8357 3.0225-4.4444 2.9217-7.1498.1008-2.4154-1.0075-4.8309-2.821-6.4734zm-10.5787 3.7681h2.015c2.2165 0 3.224.9662 3.224 2.802.1007.9661-.3023 1.9323-1.0075 2.6087-.806.6763-1.8135.9661-2.821.9661h-1.4105zm40.804-2.8019c-2.418-2.4155-5.945-3.5749-10.579-3.5749-4.635 0-8.161 1.256-10.579 3.6715-2.4178 2.4155-3.6268 5.8937-3.6268 10.5314s1.209 8.2126 3.6268 10.6281c2.418 2.4154 5.944 3.6715 10.478 3.6715 4.635 0 8.161-1.2561 10.579-3.6715 2.418-2.4155 3.627-5.9904 3.627-10.6281.101-4.7343-1.108-8.3092-3.526-10.628zm-10.579 2.5121c1.713-.0967 3.325.6763 4.332 1.9323 1.008 1.3527 1.511 3.3817 1.511 6.087s-.503 4.7343-1.41 6.087c-1.008 1.3526-2.72 2.029-4.433 1.9323-3.929 0-5.844-2.7053-5.844-8.0193 0-5.4106 1.915-8.0193 5.844-8.0193zm34.456 6.6666 9.169-12.3671h-8.564l-6.146 8.5024c-.907 1.1594-1.713 2.3188-2.418 3.5749v-11.9807h-7.959v27.4397h7.959v-9.2754l2.317-1.3527 5.743 10.5314h8.866zm28.21-12.3671v16.1353c.101 1.5459-.201 2.9951-1.108 4.2512-1.914 1.7391-4.937 1.7391-6.952 0-.906-1.2561-1.309-2.7053-1.108-4.2512v-16.2319h-7.959v16.8116c0 3.5749 1.108 6.3768 3.224 8.3092 2.116 1.9323 5.138 2.8985 9.168 2.8985s7.153-.9662 9.37-2.9951c2.116-2.029 3.224-4.7344 3.224-8.4059v-16.6183zm31.636 2.2222c-1.814-1.5459-4.635-2.3188-8.262-2.3188h-10.075v27.6329h7.859v-9.1788h2.216c3.526 0 6.247-.8696 8.161-2.5121 2.015-1.8357 3.022-4.4444 2.922-7.1498.1-2.4154-1.008-4.8309-2.821-6.4734zm-10.579 3.7681h2.015c2.216 0 3.224.9662 3.224 2.802.101.9661-.302 1.9323-1.008 2.6087-.806.6763-1.813.9661-2.821.9661h-1.41zm39.998-2.8019c-2.418-2.4155-5.945-3.5749-10.579-3.5749-4.635 0-8.161 1.256-10.579 3.6715s-3.627 5.8937-3.627 10.5314 1.209 8.2126 3.627 10.6281c2.418 2.4154 5.944 3.6715 10.478 3.6715 4.635 0 8.161-1.2561 10.579-3.6715 2.418-2.4155 3.627-5.9904 3.627-10.6281 0-4.7343-1.108-8.3092-3.526-10.628zm-10.579 2.5121c1.713-.0967 3.325.6763 4.332 1.9323 1.008 1.3527 1.511 3.3817 1.511 6.087s-.503 4.7343-1.41 6.087c-1.008 1.3526-2.72 2.029-4.433 1.9323-3.929 0-5.844-2.7053-5.844-8.0193-.1-5.4106 1.915-8.0193 5.844-8.0193z" fill="#15a865"/><path d="m25.0145 58.9373 5.239-12.1739 14.3065-.8696c.3022 0 .6045-.2898.7052-.5797.1008-.2899-.1007-.5797-.403-.773l-27.7062-14.1063c-.2015-.0966-.6045-.0966-.806.0967-.3022.1932-.403.483-.3022.7729l7.3547 27.5363c0 .3865.3023.5797.7053.5797.3022 0 .6045-.1932.9067-.4831z" fill="#fff"/></svg>